<svg width="100" height="93" viewBox="0 0 100 93" fill="none" xmlns="http://www.w3.org/2000/svg">
<path d="M9.13672 74C7.70703 74 6.46484 73.6953 5.41016 73.0859C4.37891 72.4766 3.52344 71.6562 2.84375 70.625C2.16406 69.5703 1.66016 68.3633 1.33203 67.0039C1.00391 65.6445 0.839844 64.2031 0.839844 62.6797C0.839844 61.3438 0.96875 59.9844 1.22656 58.6016C1.48438 57.2188 1.84766 55.8828 2.31641 54.5938C2.80859 53.2812 3.41797 52.0625 4.14453 50.9375C4.87109 49.7891 5.70312 48.793 6.64062 47.9492C7.57812 47.1055 8.62109 46.4375 9.76953 45.9453C10.9414 45.4531 12.1953 45.207 13.5312 45.207C15.0547 45.207 16.3438 45.5469 17.3984 46.2266C18.4766 46.9062 19.3438 47.7383 20 48.7227C20.0234 44.293 20.2461 40.3789 20.668 36.9805C21.0898 33.582 21.6758 30.7344 22.4258 28.4375C23.1992 26.1406 24.1133 24.4062 25.168 23.2344C26.2227 22.0391 27.3828 21.4414 28.6484 21.4414C29.0938 21.4414 29.4922 21.5 29.8438 21.6172C30.2188 21.7109 30.5234 21.8984 30.7578 22.1797C31.0156 22.4609 31.2031 22.8477 31.3203 23.3398C31.4609 23.8086 31.5312 24.418 31.5312 25.168C31.5312 26.7148 31.3789 28.4961 31.0742 30.5117C30.7695 32.5039 30.3359 34.6836 29.7734 37.0508C29.2109 39.3945 28.5195 41.9023 27.6992 44.5742C26.9023 47.2227 26.0117 49.9766 25.0273 52.8359C25.0508 55.3438 25.0859 57.5117 25.1328 59.3398C25.1797 61.168 25.2383 62.7148 25.3086 63.9805C25.4023 65.2461 25.5078 66.2773 25.625 67.0742C25.7656 67.8711 25.918 68.4922 26.082 68.9375C26.2695 69.3594 26.4805 69.6523 26.7148 69.8164C26.9727 69.957 27.2539 70.0273 27.5586 70.0273C28.0977 70.0273 28.6367 69.793 29.1758 69.3242C29.7383 68.832 30.3359 68.1172 30.9688 67.1797C31.6016 66.2188 32.2812 65.0469 33.0078 63.6641C33.7578 62.2812 34.5781 60.6875 35.4688 58.8828L35.8555 58.1445L37.2969 59.2344L36.9102 59.9727C35.5508 62.7148 34.3555 64.9883 33.3242 66.793C32.293 68.5742 31.3438 70.0039 30.4766 71.082C29.6328 72.1602 28.8242 72.9219 28.0508 73.3672C27.2773 73.7891 26.4688 74 25.625 74C24.8047 74 24.0898 73.8008 23.4805 73.4023C22.8945 72.9805 22.3906 72.3359 21.9688 71.4688C21.5469 70.5781 21.207 69.4531 20.9492 68.0938C20.6914 66.7109 20.4922 65.0586 20.3516 63.1367C19.5312 64.7773 18.6875 66.2656 17.8203 67.6016C16.9531 68.9375 16.0508 70.0859 15.1133 71.0469C14.1992 71.9844 13.2383 72.7109 12.2305 73.2266C11.2227 73.7422 10.1914 74 9.13672 74ZM14.2344 47C12.9453 47 11.8203 47.3984 10.8594 48.1953C9.89844 48.9688 9.10156 49.9883 8.46875 51.2539C7.83594 52.4961 7.36719 53.9023 7.0625 55.4727C6.75781 57.043 6.60547 58.6133 6.60547 60.1836C6.60547 61.4727 6.69922 62.7148 6.88672 63.9102C7.09766 65.082 7.40234 66.125 7.80078 67.0391C8.22266 67.9531 8.72656 68.6797 9.3125 69.2188C9.89844 69.7578 10.5781 70.0273 11.3516 70.0273C12.1016 70.0273 12.8281 69.8398 13.5312 69.4648C14.2578 69.0898 14.9727 68.4922 15.6758 67.6719C16.3789 66.8281 17.0938 65.75 17.8203 64.4375C18.5469 63.1016 19.3203 61.4844 20.1406 59.5859C20.0938 58.4609 20.0586 57.2656 20.0352 56C20.0117 54.7109 20 53.3398 20 51.8867C19.4844 50.3633 18.6992 49.168 17.6445 48.3008C16.6133 47.4336 15.4766 47 14.2344 47ZM29 26.4688C29 25.3906 28.8711 24.6406 28.6133 24.2188C28.3789 23.7969 28.0977 23.5859 27.7695 23.5859C27.207 23.5859 26.75 24.1367 26.3984 25.2383C26.0469 26.3164 25.7656 27.7812 25.5547 29.6328C25.3672 31.4844 25.2266 33.6289 25.1328 36.0664C25.0625 38.5039 25.0273 41.0703 25.0273 43.7656V47.6328C25.7539 45.2656 26.375 43.1328 26.8906 41.2344C27.4062 39.3359 27.8164 37.5664 28.1211 35.9258C28.4258 34.2852 28.6484 32.7031 28.7891 31.1797C28.9297 29.6563 29 28.0859 29 26.4688ZM47.3516 47.7031C46.6719 47.7031 46.0156 47.9492 45.3828 48.4414C44.7734 48.9102 44.1875 49.5664 43.625 50.4102C43.0625 51.2305 42.5117 52.2031 41.9727 53.3281C41.457 54.4297 40.9414 55.6133 40.4258 56.8789V57.3008C40.3555 59.3633 40.2852 61.5547 40.2148 63.875C40.168 66.1953 40.1445 68.7266 40.1445 71.4688C40.1445 71.9375 39.9805 72.3359 39.6523 72.6641C39.3477 72.9688 38.9844 73.2266 38.5625 73.4375C38.1406 73.625 37.707 73.7656 37.2617 73.8594C36.8164 73.9531 36.4531 74 36.1719 74C35.8203 74 35.4922 73.8945 35.1875 73.6836C34.8828 73.4727 34.7305 73.0039 34.7305 72.2773C34.7305 71.9258 34.7656 71.4922 34.8359 70.9766C34.9062 70.4375 35 69.8633 35.1172 69.2539C35.2109 68.6445 35.3281 68.0234 35.4688 67.3906C35.5859 66.7344 35.7031 66.125 35.8203 65.5625C35.8203 63.5703 35.8203 61.7773 35.8203 60.1836C35.7969 58.5898 35.7852 57.1719 35.7852 55.9297C35.7852 54.6875 35.7852 53.5977 35.7852 52.6602C35.7617 51.7227 35.75 50.9141 35.75 50.2344C35.75 49.1094 35.7734 48.2891 35.8203 47.7734C35.8438 47.2344 35.8906 46.8594 35.9609 46.6484C36.0781 46.3203 36.2891 46.0625 36.5938 45.875C36.9219 45.6875 37.2617 45.5469 37.6133 45.4531C37.9648 45.3359 38.3164 45.2656 38.668 45.2422C39.0195 45.2188 39.2891 45.207 39.4766 45.207C39.9219 45.207 40.2148 45.3359 40.3555 45.5938C40.4961 45.8516 40.5664 46.25 40.5664 46.7891C40.5664 48.0078 40.5664 49.1094 40.5664 50.0938C40.5664 51.0781 40.543 52.0625 40.4961 53.0469C40.9414 51.9922 41.457 50.9961 42.043 50.0586C42.6523 49.0977 43.3203 48.2656 44.0469 47.5625C44.7734 46.8359 45.5352 46.2617 46.332 45.8398C47.1523 45.418 47.9961 45.207 48.8633 45.207C49.918 45.207 50.7852 45.4297 51.4648 45.875C52.168 46.2969 52.7188 46.8945 53.1172 47.668C53.5391 48.4414 53.8438 49.3555 54.0312 50.4102C54.2422 51.4414 54.3828 52.5664 54.4531 53.7852C55.1094 52.5898 55.8125 51.4766 56.5625 50.4453C57.3359 49.3906 58.1445 48.4766 58.9883 47.7031C59.8555 46.9297 60.7578 46.3203 61.6953 45.875C62.6562 45.4297 63.6523 45.207 64.6836 45.207C66.4648 45.207 67.7656 45.7695 68.5859 46.8945C69.4062 47.9961 69.8164 49.4961 69.8164 51.3945C69.8164 52.5898 69.7227 53.9258 69.5352 55.4023C69.3477 56.8789 69.1484 58.3789 68.9375 59.9023C68.7266 61.4023 68.5273 62.8789 68.3398 64.332C68.1523 65.7852 68.0586 67.1094 68.0586 68.3047C68.0586 69.7578 68.4219 70.4844 69.1484 70.4844C69.5234 70.4844 69.9336 70.2617 70.3789 69.8164C70.8242 69.3477 71.3281 68.6445 71.8906 67.707C72.4766 66.7461 73.1445 65.5391 73.8945 64.0859C74.668 62.6328 75.5586 60.8984 76.5664 58.8828L76.918 58.1445L78.3594 59.2344L78.0078 59.9727C76.625 62.7383 75.4414 65.0234 74.457 66.8281C73.4961 68.6328 72.6289 70.0742 71.8555 71.1523C71.082 72.207 70.3438 72.9453 69.6406 73.3672C68.9609 73.7891 68.1992 74 67.3555 74C66.8633 74 66.3828 73.9297 65.9141 73.7891C65.4453 73.6484 65.0352 73.4023 64.6836 73.0508C64.332 72.6992 64.0508 72.2305 63.8398 71.6445C63.6289 71.0352 63.5234 70.2617 63.5234 69.3242C63.5234 67.918 63.6172 66.3359 63.8047 64.5781C63.9922 62.8203 64.2031 61.0625 64.4375 59.3047C64.6719 57.5469 64.8828 55.8945 65.0703 54.3477C65.2578 52.7773 65.3516 51.5 65.3516 50.5156C65.3516 49.6484 65.1641 48.957 64.7891 48.4414C64.4141 47.9023 63.8516 47.6328 63.1016 47.6328C62.3516 47.6328 61.5664 47.9258 60.7461 48.5117C59.9492 49.0977 59.1641 49.8594 58.3906 50.7969C57.6406 51.7109 56.9258 52.7422 56.2461 53.8906C55.5898 55.0391 55.0156 56.1758 54.5234 57.3008C54.5234 59.7617 54.5 61.918 54.4531 63.7695C54.4062 65.5977 54.3359 67.1445 54.2422 68.4102C54.1719 69.6758 54.0664 70.6836 53.9258 71.4336C53.7852 72.1602 53.6328 72.6523 53.4688 72.9102C53.3516 73.0742 53.1523 73.2266 52.8711 73.3672C52.5898 73.5078 52.2734 73.625 51.9219 73.7188C51.5938 73.8125 51.2656 73.8828 50.9375 73.9297C50.6328 73.9766 50.3984 74 50.2344 74C49.8594 74 49.5312 73.8945 49.25 73.6836C48.9922 73.4492 48.8633 73.0039 48.8633 72.3477C48.8633 72.043 48.8867 71.6328 48.9336 71.1172C49.0039 70.6016 49.0859 70.0273 49.1797 69.3945C49.2734 68.7617 49.3789 68.082 49.4961 67.3555C49.6133 66.6289 49.7305 65.8906 49.8477 65.1406C49.8711 64.4375 49.8945 63.6523 49.918 62.7852C49.9414 61.918 49.9648 61.0625 49.9883 60.2188C50.0117 59.3516 50.0234 58.5312 50.0234 57.7578C50.0469 56.9609 50.0586 56.2812 50.0586 55.7188C50.0586 54.5234 50.0234 53.4336 49.9531 52.4492C49.8828 51.4648 49.7422 50.6211 49.5312 49.918C49.3438 49.2148 49.0742 48.6758 48.7227 48.3008C48.3711 47.9023 47.9141 47.7031 47.3516 47.7031ZM76.6016 58.8828L76.9531 58.1445C77.3047 57.4414 77.6211 56.7148 77.9023 55.9648C78.207 55.2148 78.4648 54.5117 78.6758 53.8555C78.8867 53.1758 79.0508 52.5781 79.168 52.0625C79.2852 51.5234 79.3672 51.1133 79.4141 50.832C78.8047 50.7617 78.2188 50.6094 77.6562 50.375C77.0938 50.1406 76.6016 49.8242 76.1797 49.4258C75.7578 49.0273 75.4297 48.5586 75.1953 48.0195C74.9375 47.4805 74.8086 46.8711 74.8086 46.1914C74.8086 45.6523 74.9023 45.1719 75.0898 44.75C75.2773 44.3281 75.5352 43.9766 75.8633 43.6953C76.168 43.4141 76.5195 43.2031 76.918 43.0625C77.293 42.8984 77.6914 42.8164 78.1133 42.8164C78.6758 42.8164 79.168 42.9336 79.5898 43.168C80.0117 43.4023 80.3633 43.7188 80.6445 44.1172C80.9258 44.4922 81.1367 44.9375 81.2773 45.4531C81.418 45.9453 81.4883 46.4609 81.4883 47C82.1445 47 82.8477 46.9062 83.5977 46.7188C84.3711 46.5312 85.1445 46.332 85.918 46.1211C86.6914 45.8867 87.4531 45.6758 88.2031 45.4883C88.9531 45.3008 89.6445 45.207 90.2773 45.207C90.8164 45.207 91.25 45.3242 91.5781 45.5586C91.9062 45.7695 92.0703 46.1328 92.0703 46.6484C92.0703 47.0234 91.9531 47.6445 91.7188 48.5117C91.5078 49.3789 91.2383 50.3867 90.9102 51.5352C90.582 52.6836 90.2188 53.9375 89.8203 55.2969C89.4453 56.6328 89.0938 57.9922 88.7656 59.375C88.4375 60.7344 88.1562 62.0586 87.9219 63.3477C87.7109 64.6367 87.6055 65.7852 87.6055 66.793C87.6055 68.0586 87.7461 68.9141 88.0273 69.3594C88.3086 69.8047 88.8125 70.0273 89.5391 70.0273C89.8438 70.0273 90.2188 69.8984 90.6641 69.6406C91.1328 69.3594 91.6953 68.832 92.3516 68.0586C93.0078 67.2617 93.7812 66.1367 94.6719 64.6836C95.5859 63.207 96.6406 61.2734 97.8359 58.8828L98.1875 58.1445L99.6289 59.2344L99.2773 59.9727C97.8711 62.7852 96.6172 65.0938 95.5156 66.8984C94.4141 68.7031 93.3945 70.1328 92.457 71.1875C91.543 72.2422 90.6758 72.9805 89.8555 73.4023C89.0352 73.8008 88.2148 74 87.3945 74C86.0117 74 84.8867 73.4727 84.0195 72.418C83.1523 71.3633 82.7188 69.7344 82.7188 67.5312C82.7188 66.3359 82.8828 65.0938 83.2109 63.8047C83.5391 62.5156 83.9492 61.2383 84.4414 59.9727C84.9336 58.6836 85.4844 57.418 86.0938 56.1758C86.7031 54.9336 87.2773 53.7617 87.8164 52.6602C88.3789 51.5352 88.8828 50.4922 89.3281 49.5312C89.7734 48.5703 90.0898 47.7266 90.2773 47L90.0664 46.7891C89.6914 46.7891 89.1875 46.9883 88.5547 47.3867C87.9219 47.7852 87.207 48.2422 86.4102 48.7578C85.6367 49.25 84.8047 49.7188 83.9141 50.1641C83.0234 50.6094 82.1211 50.8789 81.207 50.9727C81.1602 51.3008 81.0547 51.7812 80.8906 52.4141C80.75 53.0469 80.5508 53.75 80.293 54.5234C80.0352 55.2969 79.7422 56.0938 79.4141 56.9141C79.0859 57.7344 78.7461 58.5078 78.3945 59.2344L78.043 59.9727L76.6016 58.8828ZM78.3242 44.7852C78.1133 44.7852 77.9375 44.8555 77.7969 44.9961C77.6562 45.1367 77.5859 45.3008 77.5859 45.4883C77.5859 45.7695 77.6562 46.0156 77.7969 46.2266C77.9375 46.4141 78.1133 46.5781 78.3242 46.7188C78.5352 46.8359 78.7461 46.9297 78.957 47C79.1914 47.0469 79.3906 47.0703 79.5547 47.0703C79.5547 46.4141 79.4492 45.875 79.2383 45.4531C79.0273 45.0078 78.7227 44.7852 78.3242 44.7852Z" fill="#CED6DA"/>
</svg>
